<?xml version="1.0" encoding="UTF-8" standalone="no"?><svg xmlns="http://www.w3.org/2000/svg" xmlns:xlink="http://www.w3.org/1999/xlink" contentScriptType="application/ecmascript" contentStyleType="text/css" height="341px" preserveAspectRatio="none" style="width:876px;height:341px;" version="1.1" viewBox="0 0 876 341" width="876px" zoomAndPan="magnify"><defs><filter height="300%" id="fgk8aotrcam4e" width="300%" x="-1" y="-1"><feGaussianBlur result="blurOut" stdDeviation="2.0"/><feColorMatrix in="blurOut" result="blurOut2" type="matrix" values="0 0 0 0 0 0 0 0 0 0 0 0 0 0 0 0 0 0 .4 0"/><feOffset dx="4.0" dy="4.0" in="blurOut2" result="blurOut3"/><feBlend in="SourceGraphic" in2="blurOut3" mode="normal"/></filter></defs><g><!--MD5=[9f070bf9f108c27faa2eb76515c78fb3]
class Wallet--><rect fill="#FEFECE" filter="url(#fgk8aotrcam4e)" height="124.8281" id="Wallet" style="stroke: #A80036; stroke-width: 1.5;" width="349" x="6" y="20.5"/><ellipse cx="157.25" cy="36.5" fill="#ADD1B2" rx="11" ry="11" style="stroke: #A80036; stroke-width: 1.0;"/><path d="M160.2188,42.1406 Q159.6406,42.4375 159,42.5781 Q158.3594,42.7344 157.6563,42.7344 Q155.1563,42.7344 153.8281,41.0938 Q152.5156,39.4375 152.5156,36.3125 Q152.5156,33.1875 153.8281,31.5313 Q155.1563,29.875 157.6563,29.875 Q158.3594,29.875 159,30.0313 Q159.6563,30.1875 160.2188,30.4844 L160.2188,33.2031 Q159.5938,32.625 159,32.3594 Q158.4063,32.0781 157.7813,32.0781 Q156.4375,32.0781 155.75,33.1563 Q155.0625,34.2188 155.0625,36.3125 Q155.0625,38.4063 155.75,39.4844 Q156.4375,40.5469 157.7813,40.5469 Q158.4063,40.5469 159,40.2813 Q159.5938,40 160.2188,39.4219 L160.2188,42.1406 Z "/><text fill="#000000" font-family="sans-serif" font-size="12" lengthAdjust="spacingAndGlyphs" textLength="38" x="177.75" y="40.6543">Wallet</text><line style="stroke: #A80036; stroke-width: 1.5;" x1="7" x2="354" y1="52.5" y2="52.5"/><text fill="#000000" font-family="sans-serif" font-size="11" lengthAdjust="spacingAndGlyphs" textLength="70" x="12" y="66.7104">client: Client</text><text fill="#000000" font-family="sans-serif" font-size="11" lengthAdjust="spacingAndGlyphs" textLength="226" x="12" y="79.5151">stronghold_storage: StrongholdStorage</text><text fill="#000000" font-family="sans-serif" font-size="11" lengthAdjust="spacingAndGlyphs" textLength="102" x="12" y="92.3198">address: Address</text><text fill="#000000" font-family="sans-serif" font-size="11" lengthAdjust="spacingAndGlyphs" textLength="132" x="12" y="105.1245">network: NetworkName</text><text fill="#000000" font-family="sans-serif" font-size="11" lengthAdjust="spacingAndGlyphs" textLength="337" x="12" y="117.9292">storage: Storage&lt;StrongholdStorage, StrongholdStorage&gt;</text><line style="stroke: #A80036; stroke-width: 1.5;" x1="7" x2="354" y1="124.5234" y2="124.5234"/><text fill="#000000" font-family="sans-serif" font-size="11" lengthAdjust="spacingAndGlyphs" textLength="239" x="12" y="138.7339">Wallet *setup(stronghold_path, password)</text><!--MD5=[7a534eae2c3d4ab543038ae4ec024199]
class Did--><rect fill="#FEFECE" filter="url(#fgk8aotrcam4e)" height="150.4375" id="Did" style="stroke: #A80036; stroke-width: 1.5;" width="475" x="390" y="8"/><ellipse cx="613.25" cy="24" fill="#ADD1B2" rx="11" ry="11" style="stroke: #A80036; stroke-width: 1.0;"/><path d="M616.2188,29.6406 Q615.6406,29.9375 615,30.0781 Q614.3594,30.2344 613.6563,30.2344 Q611.1563,30.2344 609.8281,28.5938 Q608.5156,26.9375 608.5156,23.8125 Q608.5156,20.6875 609.8281,19.0313 Q611.1563,17.375 613.6563,17.375 Q614.3594,17.375 615,17.5313 Q615.6563,17.6875 616.2188,17.9844 L616.2188,20.7031 Q615.5938,20.125 615,19.8594 Q614.4063,19.5781 613.7813,19.5781 Q612.4375,19.5781 611.75,20.6563 Q611.0625,21.7188 611.0625,23.8125 Q611.0625,25.9063 611.75,26.9844 Q612.4375,28.0469 613.7813,28.0469 Q614.4063,28.0469 615,27.7813 Q615.5938,27.5 616.2188,26.9219 L616.2188,29.6406 Z "/><text fill="#000000" font-family="sans-serif" font-size="12" lengthAdjust="spacingAndGlyphs" textLength="20" x="633.75" y="28.1543">Did</text><line style="stroke: #A80036; stroke-width: 1.5;" x1="391" x2="864" y1="40" y2="40"/><text fill="#000000" font-family="sans-serif" font-size="11" lengthAdjust="spacingAndGlyphs" textLength="165" x="396" y="54.2104">did_document: IotaDocument</text><text fill="#000000" font-family="sans-serif" font-size="11" lengthAdjust="spacingAndGlyphs" textLength="94" x="396" y="67.0151">fragment: String</text><line style="stroke: #A80036; stroke-width: 1.5;" x1="391" x2="864" y1="73.6094" y2="73.6094"/><text fill="#000000" font-family="sans-serif" font-size="11" lengthAdjust="spacingAndGlyphs" textLength="171" x="396" y="87.8198">Did *did_create(Wallet *wallet)</text><text fill="#000000" font-family="sans-serif" font-size="11" lengthAdjust="spacingAndGlyphs" textLength="237" x="396" y="100.6245">Did *did_resolve(Wallet *wallet, char *did)</text><text fill="#000000" font-family="sans-serif" font-size="11" lengthAdjust="spacingAndGlyphs" textLength="164" x="396" y="113.4292">const char *get_did(Did *did)</text><text fill="#000000" font-family="sans-serif" font-size="11" lengthAdjust="spacingAndGlyphs" textLength="263" x="396" y="126.2339">Did *set_did(char *document, char *fragment)</text><text fill="#000000" font-family="sans-serif" font-size="11" lengthAdjust="spacingAndGlyphs" textLength="463" x="396" y="139.0386">char *did_sign(Wallet *wallet, Did *did, uint8_t *message, uintptr_t message_len)</text><text fill="#000000" font-family="sans-serif" font-size="11" lengthAdjust="spacingAndGlyphs" textLength="218" x="396" y="151.8433">rvalue_t did_verify(Did *did, char *jws)</text><!--MD5=[9e431c2a6a774335244e7d8e28a0a0d1]
class Vc--><rect fill="#FEFECE" filter="url(#fgk8aotrcam4e)" height="112.0234" id="Vc" style="stroke: #A80036; stroke-width: 1.5;" width="301" x="30" y="218"/><ellipse cx="168.75" cy="234" fill="#ADD1B2" rx="11" ry="11" style="stroke: #A80036; stroke-width: 1.0;"/><path d="M171.7188,239.6406 Q171.1406,239.9375 170.5,240.0781 Q169.8594,240.2344 169.1563,240.2344 Q166.6563,240.2344 165.3281,238.5938 Q164.0156,236.9375 164.0156,233.8125 Q164.0156,230.6875 165.3281,229.0313 Q166.6563,227.375 169.1563,227.375 Q169.8594,227.375 170.5,227.5313 Q171.1563,227.6875 171.7188,227.9844 L171.7188,230.7031 Q171.0938,230.125 170.5,229.8594 Q169.9063,229.5781 169.2813,229.5781 Q167.9375,229.5781 167.25,230.6563 Q166.5625,231.7188 166.5625,233.8125 Q166.5625,235.9063 167.25,236.9844 Q167.9375,238.0469 169.2813,238.0469 Q169.9063,238.0469 170.5,237.7813 Q171.0938,237.5 171.7188,236.9219 L171.7188,239.6406 Z "/><text fill="#000000" font-family="sans-serif" font-size="12" lengthAdjust="spacingAndGlyphs" textLength="15" x="189.25" y="238.1543">Vc</text><line style="stroke: #A80036; stroke-width: 1.5;" x1="31" x2="330" y1="250" y2="250"/><text fill="#000000" font-family="sans-serif" font-size="11" lengthAdjust="spacingAndGlyphs" textLength="36" x="36" y="264.2104">vc: Jwt</text><line style="stroke: #A80036; stroke-width: 1.5;" x1="31" x2="330" y1="270.8047" y2="270.8047"/><text fill="#000000" font-family="sans-serif" font-size="11" lengthAdjust="spacingAndGlyphs" textLength="289" x="36" y="285.0151">Vc *vc_create(Wallet *wallet, Did *did, char *name)</text><text fill="#000000" font-family="sans-serif" font-size="11" lengthAdjust="spacingAndGlyphs" textLength="248" x="36" y="297.8198">Did *vc_verify(Wallet *wallet, char *peer_vc)</text><text fill="#000000" font-family="sans-serif" font-size="11" lengthAdjust="spacingAndGlyphs" textLength="114" x="36" y="310.6245">char *get_vc(Vc *vc)</text><text fill="#000000" font-family="sans-serif" font-size="11" lengthAdjust="spacingAndGlyphs" textLength="171" x="36" y="323.4292">Vc *set_vc(const char *vc_jwt)</text><!--MD5=[c10f4af7fcb0676e1c4b1d775cf8b806]
link Wallet to Did--><!--MD5=[a2692d5533a50229d0b1ab7c2bb03087]
link Wallet to Vc--><!--MD5=[361c9b15f500aefe8e22c64bd7bb9451]
@startuml
class Wallet {
    client: Client
    stronghold_storage: StrongholdStorage
    address: Address
    network: NetworkName
    storage: Storage<StrongholdStorage, StrongholdStorage>

    Wallet *setup(stronghold_path, password)
}

class Did {
    did_document: IotaDocument
    fragment: String

    Did *did_create(Wallet *wallet)
    Did *did_resolve(Wallet *wallet, char *did)
    const char *get_did(Did *did)
    Did *set_did(char *document, char *fragment)
    char *did_sign(Wallet *wallet, Did *did, uint8_t *message, uintptr_t message_len)
    rvalue_t did_verify(Did *did, char *jws)
}

class Vc {
    vc: Jwt

    Vc *vc_create(Wallet *wallet, Did *did, char *name)
    Did *vc_verify(Wallet *wallet, char *peer_vc)
    char *get_vc(Vc *vc)
    Vc *set_vc(const char *vc_jwt)
}
@enduml

PlantUML version 1.2020.02(Sun Mar 01 11:22:07 CET 2020)
(GPL source distribution)
Java Runtime: OpenJDK Runtime Environment
JVM: OpenJDK 64-Bit Server VM
Java Version: 11.0.21+9-post-Ubuntu-0ubuntu122.04
Operating System: Linux
Default Encoding: UTF-8
Language: en
Country: US
--></g></svg>